<svg width="375" height="365" viewBox="0 0 375 365" fill="none" xmlns="http://www.w3.org/2000/svg">
<rect x="35" y="113" width="302" height="194" fill="url(#paint0_radial_1230_6330)"/>
<path d="M393 142C379.013 173.665 341.091 239.973 301.295 251.885C251.55 266.775 272.266 348.576 389.437 345.938" stroke="#C4C4C4" stroke-opacity="0.5" stroke-width="0.5"/>
<path d="M394 170C379.902 202.79 340.611 244.207 300.497 256.542C250.355 271.961 271.237 356.668 389.344 353.935" stroke="#C4C4C4" stroke-opacity="0.5" stroke-width="0.5"/>
<path d="M334.75 204.5C334.75 212.346 330.672 219.847 323.239 226.698C315.806 233.549 305.037 239.73 291.707 244.926C265.051 255.317 228.208 261.75 187.5 261.75C146.792 261.75 109.949 255.317 83.2926 244.926C69.9634 239.73 59.1938 233.549 51.7607 226.698C44.3278 219.847 40.25 212.346 40.25 204.5C40.25 196.654 44.3278 189.153 51.7607 182.302C59.1938 175.451 69.9634 169.27 83.2926 164.074C109.949 153.683 146.792 147.25 187.5 147.25C228.208 147.25 265.051 153.683 291.707 164.074C305.037 169.27 315.806 175.451 323.239 182.302C330.672 189.153 334.75 196.654 334.75 204.5Z" stroke="#C4C4C4" stroke-opacity="0.5" stroke-width="0.5"/>
<path d="M318.75 198C318.75 205.642 314.907 212.947 307.904 219.617C300.901 226.287 290.754 232.306 278.194 237.366C253.077 247.485 218.36 253.75 180 253.75C141.64 253.75 106.923 247.485 81.8056 237.366C69.2461 232.306 59.099 226.287 52.0957 219.617C45.0931 212.947 41.25 205.642 41.25 198C41.25 190.358 45.0931 183.053 52.0957 176.383C59.099 169.713 69.2461 163.694 81.8056 158.634C106.923 148.515 141.64 142.25 180 142.25C218.36 142.25 253.077 148.515 278.194 158.634C290.754 163.694 300.901 169.713 307.904 176.383C314.907 183.053 318.75 190.358 318.75 198Z" stroke="#C4C4C4" stroke-opacity="0.5" stroke-width="0.5"/>
<path d="M327.75 207C327.75 214.224 323.994 221.134 317.143 227.446C310.292 233.759 300.364 239.455 288.076 244.244C263.5 253.821 229.532 259.75 192 259.75C154.468 259.75 120.5 253.821 95.9243 244.244C83.6357 239.455 73.7081 233.759 66.857 227.446C60.006 221.134 56.25 214.224 56.25 207C56.25 199.776 60.006 192.866 66.857 186.554C73.7081 180.241 83.6357 174.545 95.9243 169.756C120.5 160.179 154.468 154.25 192 154.25C229.532 154.25 263.5 160.179 288.076 169.756C300.364 174.545 310.292 180.241 317.143 186.554C323.994 192.866 327.75 199.776 327.75 207Z" stroke="#C4C4C4" stroke-opacity="0.5" stroke-width="0.5"/>
<circle cx="234.347" cy="157.347" r="0.956349" transform="rotate(-129.851 234.347 157.347)" fill="#E6AE4A"/>
<circle cx="62.347" cy="222.347" r="0.956349" transform="rotate(-129.851 62.347 222.347)" fill="#E6AE4A"/>
<circle cx="305.347" cy="235.347" r="0.956349" transform="rotate(-129.851 305.347 235.347)" fill="#E6AE4A"/>
<circle cx="95.1514" cy="159.151" r="2.93968" transform="rotate(-131.927 95.1514 159.151)" fill="url(#paint1_linear_1230_6330)"/>
<circle cx="221.152" cy="258.152" r="2.93968" transform="rotate(79.3617 221.152 258.152)" fill="url(#paint2_linear_1230_6330)"/>
<circle cx="327.822" cy="203.822" r="5.53923" transform="rotate(-131.927 327.822 203.822)" fill="url(#paint3_linear_1230_6330)"/>
<circle cx="67.0775" cy="187.077" r="4.30357" transform="rotate(-131.927 67.0775 187.077)" fill="url(#paint4_linear_1230_6330)"/>
<circle cx="126.334" cy="145.334" r="6.60957" transform="rotate(-131.927 126.334 145.334)" fill="url(#paint5_linear_1230_6330)"/>
<path d="M223 28C218.141 50.7417 200.093 97.605 166.774 103.124C125.126 110.023 38.4573 117.536 23.087 183.768C10.7908 236.754 -6.76109 250 -14 250" stroke="#C4C4C4" stroke-opacity="0.5" stroke-width="0.5"/>
<path d="M217 28C212.162 50.7417 194.19 97.605 161.012 103.124C119.539 110.023 33.236 117.536 17.9305 183.768C5.68619 236.754 -11.7916 250 -19 250" stroke="#C4C4C4" stroke-opacity="0.5" stroke-width="0.5"/>
<path d="M186 19C181.141 41.7417 163.093 88.605 129.774 94.1243C88.1259 101.023 1.45732 108.536 -13.913 174.768C-26.2092 227.754 -43.7611 241 -51 241" stroke="#C4C4C4" stroke-opacity="0.5" stroke-width="0.5"/>
<circle cx="99.1521" cy="249.152" r="4.00495" transform="rotate(69.5387 99.1521 249.152)" fill="url(#paint6_linear_1230_6330)"/>
<circle cx="41.3277" cy="202.328" r="5.21395" transform="rotate(91.2632 41.3277 202.328)" fill="url(#paint7_linear_1230_6330)"/>
<circle cx="307.831" cy="170.831" r="5.54532" transform="rotate(-131.927 307.831 170.831)" fill="url(#paint8_linear_1230_6330)"/>
<circle cx="1.89688" cy="1.89688" r="1.89688" transform="matrix(-0.60369 -0.797219 -0.797219 0.60369 273.315 240.024)" fill="url(#paint9_linear_1230_6330)"/>
<path d="M389 117.248C382.492 147.416 357.614 210.068 328.182 170.022C289.395 117.248 245.377 137.135 216.176 117.248C164.278 81.9047 282.667 43.8746 279.369 -17" stroke="#C4C4C4" stroke-opacity="0.3" stroke-width="0.5"/>
<path d="M387 116.577C380.857 146.593 357.377 208.932 329.598 169.087C292.99 116.577 240.017 129.235 223.883 116.577C176.428 79.3481 286.639 43.5703 283.526 -17" stroke="#C4C4C4" stroke-opacity="0.3" stroke-width="0.5"/>
<path d="M-30.741 292.509C-30.345 290.412 -30.8729 280.02 2.38636 255.237C43.9605 224.257 67.1892 270 160.5 270C247.652 270 265.613 360.854 384 364" stroke="#C4C4C4" stroke-opacity="0.3" stroke-width="0.5"/>
<defs>
<radialGradient id="paint0_radial_1230_6330" cx="0" cy="0" r="1" gradientUnits="userSpaceOnUse" gradientTransform="translate(186 210) rotate(90) scale(97 151)">
<stop offset="0.0104167" stop-color="#FFD772"/>
<stop offset="1" stop-color="white" stop-opacity="0"/>
</radialGradient>
<linearGradient id="paint1_linear_1230_6330" x1="95.1514" y1="156.212" x2="95.1514" y2="162.091" gradientUnits="userSpaceOnUse">
<stop stop-color="#89BA34"/>
<stop offset="1" stop-color="white" stop-opacity="0"/>
</linearGradient>
<linearGradient id="paint2_linear_1230_6330" x1="221.152" y1="255.212" x2="221.152" y2="261.091" gradientUnits="userSpaceOnUse">
<stop stop-color="#89BA34"/>
<stop offset="1" stop-color="white" stop-opacity="0"/>
</linearGradient>
<linearGradient id="paint3_linear_1230_6330" x1="327.822" y1="198.283" x2="327.822" y2="209.361" gradientUnits="userSpaceOnUse">
<stop stop-color="#BD4AE6"/>
<stop offset="1" stop-color="white" stop-opacity="0"/>
</linearGradient>
<linearGradient id="paint4_linear_1230_6330" x1="67.0775" y1="182.773" x2="67.0775" y2="191.38" gradientUnits="userSpaceOnUse">
<stop stop-color="#00B9E1"/>
<stop offset="1" stop-color="white" stop-opacity="0"/>
</linearGradient>
<linearGradient id="paint5_linear_1230_6330" x1="126.334" y1="138.725" x2="126.334" y2="151.944" gradientUnits="userSpaceOnUse">
<stop stop-color="#00B9E1"/>
<stop offset="1" stop-color="white" stop-opacity="0"/>
</linearGradient>
<linearGradient id="paint6_linear_1230_6330" x1="99.1521" y1="245.147" x2="99.1521" y2="253.157" gradientUnits="userSpaceOnUse">
<stop stop-color="#BD4AE6"/>
<stop offset="1" stop-color="#D9D9D9" stop-opacity="0"/>
</linearGradient>
<linearGradient id="paint7_linear_1230_6330" x1="41.3277" y1="197.114" x2="41.3277" y2="207.542" gradientUnits="userSpaceOnUse">
<stop stop-color="#E6AE4A"/>
<stop offset="1" stop-color="#D9D9D9" stop-opacity="0"/>
</linearGradient>
<linearGradient id="paint8_linear_1230_6330" x1="307.831" y1="165.286" x2="307.831" y2="176.376" gradientUnits="userSpaceOnUse">
<stop stop-color="#89BA34"/>
<stop offset="1" stop-color="#D9D9D9" stop-opacity="0"/>
</linearGradient>
<linearGradient id="paint9_linear_1230_6330" x1="1.89688" y1="0" x2="1.89688" y2="3.79377" gradientUnits="userSpaceOnUse">
<stop stop-color="#00B9E1"/>
<stop offset="1" stop-color="#D9D9D9" stop-opacity="0"/>
</linearGradient>
</defs>
</svg>
